PathFileType	4	(X/Y/Z)	C:/Users/beibeiliu/ov580/test_trc\sequence.33_training_dense_right.trc
DataRate	CameraRate	NumFrames	NumMarkers	Units	OrigDataRate	OrigDataStartFrame	OrigNumFrames
120	120	25	19	mm	120	327	373
Frame#	Time	ThumbCMC			ThumbMCP			ThumbIP			ThumbTip			IndexMCP			IndexPIP			IndexTip			MiddleMCP			MiddlePIP			MiddleTip			RingMCP			RingPIP			RingTip			PinkyMCP			PinkyPIP			PinkyTip			BackHand1			BackHand2			BackHand3	
		X0	Y0	Z0	X1	Y1	Z1	X2	Y2	Z2	X3	Y3	Z3	X4	Y4	Z4	X5	Y5	Z5	X6	Y6	Z6	X7	Y7	Z7	X8	Y8	Z8	X9	Y9	Z9	X10	Y10	Z10	X11	Y11	Z11	X12	Y12	Z12	X13	Y13	Z13	X14	Y14	Z14	X15	Y15	Z15	X16	Y16	Z16	X17	Y17	Z17	X18	Y18	Z18	
326	2.71667	276.934	19.6652	37.3448	260.217	45.1532	22.7157	237.911	51.754	11.691	216.234	48.8025	10.6771	235.012	32.9062	-22.2106	222.75	46.0656	-30.0502	210.25	65.326	-36.2966	221.607	17.0075	-21.9174	203.448	29.9482	-37.8822	190.141	41.1642	-52.2847	210.469	2.93607	-10.5587	193.263	7.89826	-25.0734	180.465	16.4102	-39.7925	197.217	-12.0997	4.99951	184.591	-8.67034	-6.00771	175.996	-13.6417	-16.1082	239.403	-16.0929	16.505	250.286	-30.2846	35.3056	263.364	-10.6041	20.5028	
327	2.725	272.174	18.9239	34.2038	263.667	48.6498	23.9603	241.761	52.9025	15.2393	214.906	48.7453	11.8705	239.944	34.0197	-21.2267	223.165	48.6063	-30.6641	209.218	68.0415	-37.6574	218.941	18.6003	-23.1434	207.616	29.6472	-35.7195	188.232	42.2372	-51.7066	207.07	3.50117	-11.819	196.76	12.0364	-25.8994	181.446	18.3065	-39.8353	198.269	-10.574	6.34753	185.567	-8.38283	-3.1638	171.768	-11.1271	-17.8118	236.345	-18.0201	16.7325	253.813	-27.0231	32.7447	263.057	-8.12815	17.1085	
328	2.73333	273.996	20.3633	35.4237	261.105	45.2037	23.5774	242.039	54.2218	14.9419	214.265	54.8658	11.676	240.663	35.7661	-20.4026	223.806	51.2434	-31.1988	209.408	68.3465	-37.0946	220.171	18.6699	-22.7759	206.529	34.0832	-38.2887	190.191	41.6704	-51.6693	209.729	6.86033	-14.8977	194.007	10.5842	-24.3437	178.083	18.6708	-42.1618	201.738	-7.90173	6.20977	184.971	-6.45923	-5.21139	176.616	-11.2769	-13.9317	239.109	-15.8703	17.5627	250.199	-27.3245	34.72	263.799	-5.27071	18.3713	
329	2.74167	274.361	20.0238	35.8289	260.848	46.5724	24.7501	239.704	57.1345	13.4267	215.72	50.8309	12.6868	238.94	33.8934	-19.2153	222.682	52.433	-31.5067	204.025	67.9716	-37.5687	218.631	21.3872	-24.2664	204.306	33.1579	-38.6414	191.36	44.1641	-53.9839	209.299	3.61211	-9.29238	190.88	9.45266	-25.4459	181.424	16.5189	-38.8316	199.67	-10.3048	8.20592	184.876	-10.4076	0.915515	172.273	-11.2522	-13.3706	241.103	-14.2207	16.5869	251.764	-27.7908	32.9718	268.134	-5.40918	17.816	
330	2.75	271.796	21.6797	32.0103	260.404	48.8454	22.495	239.156	53.2089	14.7703	210.244	50.7259	12.2398	236.738	34.532	-19.3316	220.169	51.8156	-30.0839	206.818	67.6437	-36.8188	220.623	21.7823	-24.8356	206.292	30.9888	-36.2024	189.524	39.7555	-51.0691	207.604	4.0037	-12.8959	193.326	11.6272	-29.3141	178.933	15.7324	-41.7459	200.177	-11.118	10.3904	185.764	-8.85263	0.690305	172.972	-13.4485	-12.6398	240.719	-13.8751	18.009	250.255	-27.2814	33.3999	266.584	-4.71897	19.6182	
331	2.75833	276.476	23.1703	36.6231	257.614	49.2704	21.0744	234.628	53.2938	12.6274	210.882	52.3437	11.8646	236.152	39.0733	-22.0813	220.682	55.3249	-30.8954	205.56	64.5893	-35.9396	220.546	21.5788	-24.1231	202.055	30.397	-36.9615	189.003	40.4801	-52.5575	209.798	3.3984	-9.19614	193.82	8.58435	-24.8274	179.659	12.0358	-37.9971	198.76	-10.1533	7.21878	185.756	-10.171	-0.222937	174.959	-15.5221	-9.82835	237.057	-16.496	17.0502	251.744	-26.9587	37.8921	262.13	-4.20732	17.97	
332	2.76667	271.234	20.9435	35.1375	259.548	49.2845	25.2063	235.146	54.6442	13.0108	209.607	49.9076	12.3579	236.41	37.752	-21.3445	218.764	49.1748	-28.9277	203.643	63.9676	-35.0506	218.886	20.6867	-22.6893	203.179	29.3825	-37.4966	183.881	38.0703	-54.0932	205.877	1.24779	-10.9658	191.55	6.51874	-23.2268	178.762	12.8025	-41.323	195.526	-12.5971	8.5863	183.215	-10.9557	-2.0677	169.488	-18.7266	-10.7078	235.127	-16.6858	14.567	251.867	-26.2697	36.0474	263.644	-6.08886	20.7236	
333	2.775	272.267	23.1366	35.1789	256.891	47.8851	22.5302	235.518	55.2359	15.3705	212.561	52.6173	13.5525	234.728	36.2235	-19.4423	221.7	51.4452	-28.1676	202.44	68.1126	-36.2134	216.241	17.2738	-21.5823	201.414	28.6856	-37.6204	183.37	35.631	-51.328	204.426	1.20421	-12.487	190.033	4.92605	-25.2466	177.177	9.17149	-37.031	198.555	-11.2207	6.44447	187.308	-11.6971	1.13177	170.694	-22.1655	-11.8278	235.512	-16.4366	16.0696	253.005	-25.649	34.256	262.364	-4.61794	15.2375	
334	2.78333	269.23	23.4662	33.1074	255.386	48.6627	23.6873	231.902	54.2289	14.3501	209.631	47.4194	14.5095	235.16	35.7117	-19.1753	216.077	50.9222	-29.075	198.123	67.229	-36.1812	216.206	19.6666	-22.0934	204.474	28.1777	-34.5126	182.914	35.2559	-53.325	206.779	0.0623614	-8.09902	189.325	1.67588	-22.1056	177.975	8.31583	-37.4113	199.948	-14.3371	10.9121	183.441	-15.3368	0.266651	172.918	-20.9497	-8.14221	236.248	-15.1216	17.9188	256.254	-23.8082	36.1389	265.147	-4.41815	18.4242	
335	2.79167	270.98	28.5886	31.9566	252.924	50.6545	23.0744	229.312	56.7048	13.8697	209.139	52.5486	15.0454	229.908	38.9945	-20.4491	213.299	47.9636	-28.0913	197.892	68.3554	-35.7507	213.795	15.3324	-18.2223	198.014	25.4658	-34.3334	179.45	31.6844	-51.6385	205.889	1.63779	-9.71172	190.075	3.15469	-23.7872	172.749	3.33356	-38.4451	201.962	-13.0874	10.8109	184.445	-15.4962	3.42347	174.518	-21.6874	-8.14458	241.317	-15.0485	18.6615	256.969	-24.3989	35.5798	265.986	0.0374826	19.5653	
336	2.8	266.906	25.5189	32.2111	254.088	55.0342	24.6912	228.01	53.6927	16.5432	206.905	50.89	17.0324	229.17	34.9446	-17.2359	214.908	52.2346	-28.006	193.581	65.7155	-35.2606	214.516	17.4801	-18.8178	199.341	25.9034	-32.7265	176.708	32.1516	-51.9374	205.462	0.943264	-9.27097	189.29	0.937828	-20.3185	174.381	4.3604	-34.9412	199.43	-13.2308	9.52637	182.439	-15.2768	1.42042	171.415	-18.439	-9.40138	237.537	-14.1228	16.2083	253.304	-22.8719	32.3556	263.901	-1.13259	18.1561	
337	2.80833	270.644	28.42	33.1469	251.131	54.3878	22.0942	227.903	56.1889	16.1852	202.756	50.6164	16.5672	228.883	40.5694	-20.9166	210.739	51.4295	-29.0818	197.672	66.8026	-34.6172	210.085	17.3601	-21.0533	199.218	27.7366	-34.5747	180.78	31.9986	-48.304	203.204	-1.91013	-6.35316	187.812	0.723432	-19.3101	173.146	4.58296	-36.8197	200.063	-13.155	10.3779	181.823	-13.7673	-0.277093	169.596	-21.422	-10.3286	238.176	-16.9258	18.1622	255.55	-20.4421	34.3434	261.629	1.35896	16.9662	
338	2.81667	269.223	25.2525	35.6068	251.688	54.5101	21.866	226.336	57.287	15.7405	204.246	50.5883	15.7376	228.912	35.8999	-17.6691	214.049	55.9511	-29.5012	195.457	68.1047	-35.6503	210.419	18.7872	-21.882	195.812	27.7627	-36.6003	182.623	37.2554	-51.4256	202.554	-0.857646	-7.96964	187.686	4.71637	-21.9742	173.146	5.90561	-35.422	197.324	-11.9106	10.1517	180.458	-13.81	2.08256	169.925	-18.2338	-10.4485	240.034	-13.8185	17.3091	254.379	-20.2075	32.5368	263.669	-0.509935	16.833	
339	2.825	269.415	27.3857	31.8631	255.725	51.775	26.7745	230.108	54.9243	15.9437	203.837	51.9739	14.7461	229.007	39.3847	-19.987	219.457	54.5441	-27.3336	201.921	71.1116	-36.1428	212.759	19.6777	-22.5403	200.215	27.7962	-33.0986	182.478	38.9141	-53.9149	203.458	0.950557	-8.51596	188.396	5.13149	-20.4821	173.461	10.4591	-39.3418	198.905	-10.3519	11.6617	184.734	-11.4005	3.45249	170.012	-15.532	-6.89494	237.568	-14.5745	17.0431	256.736	-22.4875	35.7289	265.496	-0.461402	16.5786	
340	2.83333	269.335	24.7282	33.6741	256.182	55.0613	23.9244	233.602	61.7721	15.7076	208.431	56.0171	15.9038	234.941	38.6543	-18.8337	215.571	54.2233	-29.5804	203.719	68.9338	-35.4458	212.697	20.8076	-22.7748	200.939	31.2301	-36.4046	184.832	37.8792	-51.1838	204.746	1.87433	-7.903	188.976	6.98014	-22.365	177.363	11.5163	-35.358	198.241	-8.90607	10.5581	184.431	-10.1529	3.74061	168.048	-15.2701	-7.85067	237.341	-12.6897	17.5479	249.649	-22.6534	32.7325	262.607	-1.36508	14.1598	
341	2.84167	273.676	26.9855	32.4578	256.655	50.5993	22.8455	235.155	60.1883	15.4179	208.687	54.7745	14.6139	232.559	40.2053	-20.6423	217.079	56.6378	-30.0614	204.351	70.0358	-35.6828	217.452	24.0854	-22.8489	204.193	32.5409	-35.7696	182.72	39.3441	-51.6015	204.958	3.14284	-7.08124	188.91	7.87587	-22.2224	176.573	10.394	-35.4277	194.437	-10.1818	9.59769	184.216	-8.6975	2.3846	169.57	-10.5095	-9.24288	239.718	-13.2926	17.4968	255.825	-22.4904	32.0977	261.398	-1.77317	16.5209	
342	2.85	273.841	27.7269	31.3179	257.817	50.4577	24.2794	234.21	55.7994	16.3123	209.971	54.2524	14.4828	234.015	37.7114	-17.8812	219.689	53.514	-28.359	203.261	71.3547	-35.6731	217.466	23.8119	-24.6176	203.67	30.6866	-34.4921	187.9	40.5577	-50.9653	204.089	4.77343	-11.6661	191.217	8.03738	-22.0888	176.991	13.5844	-39.1334	196.485	-11.3758	10.187	182.077	-7.74444	-0.847283	166.375	-13.0348	-8.20948	236.241	-14.1935	13.5544	253.596	-23.0225	33.5197	263.509	-4.29098	17.6399	
343	2.85833	273.056	24.5488	33.9668	258.115	50.1034	24.7184	236.226	58.328	16.8974	210.827	54.781	15.8713	235.253	40.9874	-21.163	221.348	56.217	-29.0838	201.965	72.399	-35.2374	216.43	22.5641	-24.5687	199.682	32.1354	-37.3223	185.009	41.9999	-54.1801	206.795	5.29279	-10.2224	192.973	9.05342	-22.4715	177.634	15.0162	-41.8269	197.815	-8.96934	9.01107	182.325	-9.92528	1.37849	165.445	-14.3122	-10.4697	237.24	-15.2474	17.4839	254.084	-24.9679	35.0259	266.016	-1.20755	18.3797	
344	2.86667	273.516	26.552	30.9077	257.199	53.8302	22.2395	236.67	56.7041	17.4181	213.619	54.439	15.9806	232.097	39.4035	-21.2139	220.301	56.4793	-29.3751	205.7	73.397	-34.3458	216.559	18.8888	-19.126	200.652	31.3039	-36.872	187.255	41.2463	-53.8265	207.553	4.46343	-9.791	193.652	9.79673	-22.5525	177.617	13.1807	-37.6313	200.606	-9.18572	9.88288	180.144	-10.175	0.941802	168.069	-15.0294	-9.80312	235.333	-12.82	14.3872	253.725	-25.0549	35.0441	263.072	-2.40387	15.3546	
345	2.875	271.267	22.9779	34.2542	260.217	52.8122	24.5806	237.054	61.8645	16.6515	210.316	55.828	14.6744	237.965	40.3736	-18.3994	217.017	56.863	-29.7937	204.209	73.1984	-34.4955	219.536	21.6577	-21.5893	203.393	29.6278	-34.737	186.538	40.2556	-53.7753	204.48	2.14321	-10.1234	190.499	10.2515	-26.5084	179.365	13.3545	-37.763	196.684	-10.682	10.4777	181.373	-8.63015	0.939642	169.356	-12.5518	-9.5854	237.375	-13.8618	14.2433	252.057	-24.9594	33.1553	265.035	1.17918	14.0053	
346	2.88333	270.893	24.2074	33.934	259.017	51.1304	24.9917	234.303	59.3049	14.5506	212.461	53.335	14.4095	232.973	39.3541	-19.8027	215.774	55.0221	-28.9916	204.595	72.622	-35.2066	215.963	21.9438	-23.7376	203.592	31.2898	-37.4214	189.216	40.4941	-53.416	205.926	2.87778	-10.7961	189.056	9.04616	-26.6345	176.716	11.7583	-37.2546	200.501	-7.46705	8.13424	182.08	-8.88878	-0.34567	171.51	-11.2886	-10.1621	237.135	-15.8907	15.2774	254.89	-25.6534	33.9932	261.174	-1.56842	16.6378	
347	2.89167	273.744	26.7354	33.8197	259.008	53.7705	24.074	234.21	58.5683	14.6854	211.505	60.3485	12.772	232.784	36.5973	-19.1568	219.039	58.4811	-31.3387	205.24	70.5507	-35.2217	216.779	21.9135	-24.2763	201.918	33.3737	-39.5759	184.901	38.5347	-53.6489	205.109	3.85992	-12.3932	192.12	8.12685	-25.9068	175.238	11.841	-41.625	199.396	-9.7282	8.62848	179.955	-11.2784	-0.067569	172.252	-15.0651	-8.5312	238.581	-12.3304	15.6648	251.262	-22.8719	30.9962	263.74	-3.39318	15.8731	
348	2.9	270.607	26.9875	31.7599	258.008	55.5677	23.0847	233.643	59.5386	12.9006	213.626	60.459	12.4152	231.328	38.4551	-22.7485	216.452	51.4645	-30.3428	202.54	70.5945	-38.1482	215.489	18.7926	-22.4579	200.359	32.4976	-39.4546	184.372	38.0744	-53.3516	206.247	3.64236	-15.2032	188.104	6.24944	-27.8032	175.854	13.1971	-44.328	197.317	-10.6864	5.06389	185.762	-11.2909	0.0977363	170.341	-17.8223	-12.6426	238.042	-10.5945	12.5326	254.341	-20.4974	31.7698	262.186	-0.522686	15.1132	
349	2.90833	269.628	27.9073	33.1684	253.795	56.8199	22.2717	233.759	63.6848	14.6906	209.676	66.8298	9.29898	231.487	38.4255	-22.3167	212.058	53.4494	-33.559	195.724	67.1974	-39.6273	215.467	21.9325	-25.3661	198.767	29.777	-37.8459	181.356	37.4515	-54.7741	206.099	2.8392	-12.7632	191.226	7.20122	-26.638	173.505	8.62928	-42.0796	199.909	-10.2304	5.36662	185.653	-12.7278	-1.55798	173.198	-20.0844	-12.2367	237.663	-10.0301	12.1033	250.706	-21.7569	32.5722	263.439	3.05281	15.3418	
350	2.91667	265.715	34.271	31.0143	249.157	57.7801	21.6957	227.85	63.5564	12.9289	204.369	68.0471	6.77697	229.504	41.4657	-22.9201	213.329	53.506	-32.9898	192.654	64.6447	-41.4178	212.941	21.7579	-25.2443	197.739	30.3246	-38.9773	176.68	32.8777	-53.3985	205.936	3.72633	-13.5662	186.084	3.43082	-29.6295	174.24	9.50285	-43.9726	197.489	-11.7946	3.35797	184.054	-16.5244	-0.304611	173.16	-23.8544	-14.8598	237.208	-10.9542	13.1253	253.045	-20.5959	34.4801	261.598	3.03207	15.2409	
